<?xml version="1.0" encoding="UTF-8"?>
<svg width="34px" height="252px" viewBox="0 0 34 252" version="1.1" xmlns="http://www.w3.org/2000/svg" xmlns:xlink="http://www.w3.org/1999/xlink">
    <!-- Generator: Sketch 51.3 (57544) - http://www.bohemiancoding.com/sketch -->
    <title>icons</title>
    <desc>Created with Sketch.</desc>
    <defs></defs>
    <g id="icons" stroke="none" stroke-width="1" fill="none" fill-rule="evenodd">
        <path d="M21.7617538,48.5295392 C22.5669425,48.0303337 23.1847743,47.2387693 23.4747315,46.2958255 C22.7208429,46.7592084 21.8877737,47.0943233 20.9989435,47.2757475 C20.2896637,46.489961 19.2759289,46 18.1540177,46 C16.0016435,46 14.2574397,47.8084645 14.2574397,50.0387115 C14.2574397,50.3553373 14.2897811,50.663874 14.3566943,50.958544 C11.1180959,50.789831 8.24640488,49.1835909 6.3226507,46.7384082 C5.98696954,47.3369926 5.79515173,48.0303337 5.79515173,48.7698974 C5.79515173,50.1704463 6.48324235,51.4069045 7.52931854,52.1326015 C6.89029759,52.1118012 6.28919411,51.9280659 5.76281035,51.6276181 L5.76281035,51.6773075 C5.76281035,53.6348404 7.10553501,55.2676585 8.89100194,55.6374404 C8.56312731,55.732197 8.21963961,55.7795753 7.86276927,55.7795753 C7.61184481,55.7795753 7.36649645,55.7553084 7.13006985,55.7079301 C7.62522745,57.311859 9.06497623,58.4812942 10.7712625,58.5124946 C9.43634443,59.5964177 7.75570816,60.2412249 5.93009333,60.2412249 C5.61560134,60.2412249 5.30445501,60.2238914 5,60.1857576 C6.72524505,61.3309259 8.77390386,62 10.9753478,62 C18.1462112,62 22.0650936,55.8454427 22.0650936,50.5078723 C22.0650936,50.3322259 22.0628632,50.1577351 22.0550566,49.9855554 C22.8167518,49.4158602 23.4791923,48.70403 24,47.8939766 C23.3007572,48.2152246 22.549099,48.4324715 21.7617538,48.5295392 Z" id="Shape" fill="#7A838E"></path>
        <g id="Group" transform="translate(5.000000, 75.000000)" fill="#7A838E">
            <path d="M6.23982673,19.0110536 C3.89482033,19.0110536 2.20242816,17.5058796 2.20242816,15.6984948 C2.20242816,13.9263876 4.30284912,12.4506115 6.64669636,12.4764817 C7.19266671,12.4835372 7.7027027,12.571731 8.16521262,12.7234243 C9.43682509,13.621825 10.3502532,14.1286453 10.6075895,15.1516933 C10.6562748,15.3598307 10.6829358,15.5714958 10.6829358,15.7902164 C10.6829358,17.598777 9.5341956,19.0110536 6.23982673,19.0110536 M6.85534745,8.40898401 C5.28235007,8.3607714 3.78701727,6.62394167 3.51577085,4.5284572 C3.24452443,2.43297272 4.29937161,0.829021637 5.87236898,0.876058325 C7.44420719,0.924270931 8.94069916,2.60465663 9.21194558,4.70131703 C9.483192,6.79680151 8.42834482,8.45719661 6.85534745,8.40898401 M10.1161003,11.5122295 C9.56433409,11.1159454 8.51064609,10.1528692 8.51064609,9.58607714 C8.51064609,8.920508 8.69727289,8.59477893 9.68141053,7.8139699 C10.69105,7.01317027 11.4062595,5.8878175 11.4062595,4.58019755 C11.4062595,3.02093133 10.7223476,1.5028222 9.43798426,1.00188147 L11.3738027,1.00188147 L12.7404673,-1.77635684e-15 L6.63394546,-1.77635684e-15 C3.89829785,-1.77635684e-15 1.3214569,2.1037159 1.3214569,4.54021637 C1.3214569,7.03080903 3.18772497,9.04045155 5.97205784,9.04045155 C6.16679885,9.04045155 6.35342566,9.0369238 6.53773412,9.02281279 C6.35806235,9.37323612 6.22707583,9.76952023 6.22707583,10.1787394 C6.22707583,10.8713547 6.59453359,11.4334431 7.05936184,11.8908749 C6.70813251,11.8908749 6.36849491,11.9014581 6.00103715,11.9014581 C2.61045696,11.9014581 0,14.091016 0,16.364064 C0,18.6006585 2.86199744,20 6.25141846,20 C10.1161003,20 12.2524556,17.7751646 12.2524556,15.5373942 C12.2524556,13.7441204 11.7296687,12.6693321 10.1161003,11.5122295 M19,8.59125118 L16.6236959,8.59125118 L16.6236959,6.18062088 L14.7099018,6.18062088 L14.7099018,8.59125118 L12.3335977,8.59125118 L12.3335977,10.5326905 L14.7099018,10.5326905 L14.7099018,12.9433208 L16.6236959,12.9433208 L16.6236959,10.5326905 L19,10.5326905 L19,8.59125118" id="Shape"></path>
        </g>
        <g id="menu-hamburguer" transform="translate(5.000000, 109.000000)" stroke="#FFFFFF" stroke-linecap="square">
            <g id="Group" transform="translate(0.000000, 1.000000)">
                <path d="M0,1 L16,1" id="Line" stroke-width="2"></path>
                <path d="M0,8.25 L9.88875155,8.25" id="Line-Copy" stroke-width="2"></path>
            </g>
        </g>
        <g id="Group-12" transform="translate(5.000000, 131.000000)" stroke="#FFFFFF" stroke-linecap="square" stroke-width="2">
            <path d="M0.636038969,13.363961 L13.0104076,0.98959236" id="Line-7"></path>
            <path d="M0.636038969,13.363961 L13.0104076,0.98959236" id="Line-7" transform="translate(6.823223, 7.176777) scale(-1, 1) translate(-6.823223, -7.176777) "></path>
        </g>
        <g id="Group-7" transform="translate(5.000000, 156.000000)">
            <rect id="Rectangle-2" fill="#FFFFFF" x="0" y="0" width="20" height="20" rx="2"></rect>
            <polygon id="Line-2" fill="#003BDE" fill-rule="nonzero" points="0 11 0 10 20 10 20 11"></polygon>
            <polygon id="Line-2-Copy" fill="#003BDE" fill-rule="nonzero" points="10 0 11 0 11 20 10 20"></polygon>
            <path d="M4,2.32608696 C4,2.1459941 4.22385763,2 4.5,2 C4.77614237,2 5,2.1459941 5,2.32608696 L5,6.67391304 C5,6.8540059 4.77614237,7 4.5,7 C4.22385763,7 4,6.8540059 4,6.67391304 L4,2.32608696 Z" id="Line" fill="#003BDE" fill-rule="nonzero"></path>
            <path d="M6.67391304,4 C6.8540059,4 7,4.22385763 7,4.5 C7,4.77614237 6.8540059,5 6.67391304,5 L2.32608696,5 C2.1459941,5 2,4.77614237 2,4.5 C2,4.22385763 2.1459941,4 2.32608696,4 L6.67391304,4 Z" id="Line-Copy" fill="#003BDE" fill-rule="nonzero"></path>
            <path d="M7.67391304,15 C7.8540059,15 8,15.2238576 8,15.5 C8,15.7761424 7.8540059,16 7.67391304,16 L3.32608696,16 C3.1459941,16 3,15.7761424 3,15.5 C3,15.2238576 3.1459941,15 3.32608696,15 L7.67391304,15 Z" id="Line-Copy" fill="#003BDE" fill-rule="nonzero"></path>
            <path d="M17.673913,15 C17.8540059,15 18,15.2238576 18,15.5 C18,15.7761424 17.8540059,16 17.673913,16 L13.326087,16 C13.1459941,16 13,15.7761424 13,15.5 C13,15.2238576 13.1459941,15 13.326087,15 L17.673913,15 Z" id="Line-Copy" fill="#003BDE" fill-rule="nonzero" transform="translate(15.500000, 15.500000) rotate(-315.000000) translate(-15.500000, -15.500000) "></path>
            <path d="M16.2994138,3.1229347 C16.4326388,2.9837455 16.6788729,2.95906683 16.8493931,3.06781336 C17.0199133,3.17655988 17.0501471,3.3775515 16.9169221,3.5167407 L13.7005862,6.8770653 C13.5673612,7.0162545 13.3211271,7.04093317 13.1506069,6.93218664 C12.9800867,6.82344012 12.9498529,6.6224485 13.0830779,6.4832593 L16.2994138,3.1229347 Z" id="Line-Copy-2" fill="#003BDE" fill-rule="nonzero" transform="translate(15.000000, 5.000000) rotate(2.000000) translate(-15.000000, -5.000000) "></path>
            <path d="M16.9031308,6.42747126 C17.0389449,6.56495814 17.0309772,6.78034687 16.8853344,6.90855546 C16.7396916,7.03676405 16.5115257,7.02924251 16.3757116,6.89175563 L13.0968692,3.57252874 C12.9610551,3.43504186 12.9690228,3.21965313 13.1146656,3.09144454 C13.2603084,2.96323595 13.4884743,2.97075749 13.6242884,3.10824437 L16.9031308,6.42747126 Z" id="Line-Copy-3" fill="#003BDE" fill-rule="nonzero" transform="translate(15.000000, 5.000000) rotate(2.000000) translate(-15.000000, -5.000000) "></path>
        </g>
        <g id="Group-7-Copy" transform="translate(5.000000, 11.000000)" fill="#003BDE">
            <path d="M13,0 L22,0 C23.1045695,-2.02906125e-16 24,0.8954305 24,2 L24,12 L13,12 L13,13 L24,13 L24,22 C24,23.1045695 23.1045695,24 22,24 L13,24 L13,13 Z M12,13 L12,24 L2,24 C0.8954305,24 1.3527075e-16,23.1045695 0,22 L0,13 L12,13 L12,12 L0,12 L0,2 C-1.3527075e-16,0.8954305 0.8954305,2.02906125e-16 2,0 L12,0 Z M18.4901658,6.13645561 L20.1360653,7.92326859 C20.2997318,8.1009473 20.5844373,8.12029709 20.7719729,7.96648756 C20.9595085,7.81267802 20.9788583,7.5439537 20.8151919,7.36627499 L19.1184748,5.52429374 L20.9593992,3.73067985 C21.131901,3.56261119 21.1029,3.31020579 20.8946236,3.1669166 C20.6863471,3.02362742 20.3776654,3.04371515 20.2051635,3.21178381 L18.5098342,4.86354439 L16.8639347,3.07673141 C16.7002682,2.8990527 16.4155627,2.87970291 16.2280271,3.03351244 C16.0404915,3.18732198 16.0211417,3.4560463 16.1848081,3.63372501 L17.8815252,5.47570626 L16.0406008,7.26932015 C15.868099,7.43738881 15.8971,7.68979421 16.1053764,7.8330834 C16.3136529,7.97637258 16.6223346,7.95628485 16.7948365,7.78821619 L18.4901658,6.13645561 Z M6,5 L6,2.45652174 C6,2.20439174 5.77614237,2 5.5,2 C5.22385763,2 5,2.20439174 5,2.45652174 L5,5 L2.45652174,5 C2.20439174,5 2,5.22385763 2,5.5 C2,5.77614237 2.20439174,6 2.45652174,6 L5,6 L5,8.54347826 C5,8.79560826 5.22385763,9 5.5,9 C5.77614237,9 6,8.79560826 6,8.54347826 L6,6 L8.54347826,6 C8.79560826,6 9,5.77614237 9,5.5 C9,5.22385763 8.79560826,5 8.54347826,5 L6,5 Z M9.47826087,18 L2.52173913,18 C2.23359057,18 2,18.2238576 2,18.5 C2,18.7761424 2.23359057,19 2.52173913,19 L9.47826087,19 C9.76640943,19 10,18.7761424 10,18.5 C10,18.2238576 9.76640943,18 9.47826087,18 Z M21.4385694,19.8989352 L16.5961692,15.689501 C16.3955905,15.5151405 16.0861254,15.5427409 15.9049597,15.7511482 C15.723794,15.9595555 15.7395314,16.2698501 15.9401102,16.4442105 L20.7825104,20.6536448 C20.9830892,20.8280053 21.2925542,20.8004049 21.4737199,20.5919976 C21.6548856,20.3835903 21.6391482,20.0732957 21.4385694,19.8989352 Z" id="Combined-Shape"></path>
        </g>
        <path d="M17,214 C10.372583,214 5,208.627417 5,202 C5,195.372583 10.372583,190 17,190 C23.627417,190 29,195.372583 29,202 C29,208.627417 23.627417,214 17,214 Z M10.2983325,207.217391 L17,199.055926 L23.7016675,207.217391 L25.3478261,205.90533 L17,195.73913 L8.65217391,205.90533 L10.2983325,207.217391 Z" id="Combined-Shape-Copy" fill="#003BDE"></path>
        <rect id="Rectangle-14-Copy" stroke="#003BDE" stroke-width="2" x="3" y="230" width="14" height="14" rx="2"></rect>
        <rect id="Rectangle-14" stroke="#003BDE" stroke-width="2" fill="#FFFFFF" x="6" y="227" width="14" height="14" rx="2"></rect>
    </g>
</svg>